<?xml version="1.0" standalone="no"?>
<!DOCTYPE svg PUBLIC "-//W3C//DTD SVG 20010904//EN"
 "http://www.w3.org/TR/2001/REC-SVG-20010904/DTD/svg10.dtd">
<svg version="1.0" xmlns="http://www.w3.org/2000/svg"
 width="512.000000pt" height="512.000000pt" viewBox="0 0 512.000000 512.000000"
 preserveAspectRatio="xMidYMid meet">

<g transform="translate(0.000000,512.000000) scale(0.100000,-0.100000)"
fill="#000000" stroke="none">
<path d="M1270 5020 c-36 -4 511 -7 1215 -8 771 -2 1307 -6 1348 -12 88 -13
301 -75 398 -115 98 -41 237 -132 303 -198 132 -132 249 -360 291 -567 27
-133 21 -264 -29 -645 -160 -1213 -197 -1640 -176 -2055 8 -171 8 -260 0 -323
-44 -357 -255 -662 -565 -815 -133 -66 -227 -91 -380 -101 l-100 -6 -3 -29 -4
-29 104 6 c379 23 714 243 888 583 52 102 95 237 110 344 6 47 15 100 20 117
4 18 4 83 -1 144 -11 136 -14 513 -6 669 11 198 64 672 157 1400 27 212 52
399 54 415 11 62 13 212 4 265 -17 100 -50 210 -61 203 -6 -3 -7 -1 -3 6 10
16 -3 53 -16 45 -7 -4 -8 -2 -4 5 21 33 -118 254 -233 370 -88 88 -218 184
-239 176 -7 -2 -11 -1 -8 4 5 8 -64 51 -80 51 -5 -1 8 -10 29 -21 62 -32 42
-30 -40 6 -79 34 -180 64 -287 85 -43 9 -55 15 -45 22 9 6 -7 7 -48 3 -41 -4
-63 -2 -63 5 0 11 -2414 12 -2530 0z"/>
<path d="M1148 5003 c7 -3 16 -2 19 1 4 3 -2 6 -13 5 -11 0 -14 -3 -6 -6z"/>
<path d="M3958 5003 c6 -2 18 -2 25 0 6 3 1 5 -13 5 -14 0 -19 -2 -12 -5z"/>
<path d="M1290 4853 c-79 -14 -194 -49 -256 -78 -294 -135 -525 -439 -575
-752 -17 -112 -16 -347 4 -493 34 -258 98 -806 132 -1130 41 -401 48 -554 40
-815 -9 -305 -8 -362 10 -461 62 -339 287 -627 587 -752 79 -33 251 -72 317
-72 l41 0 0 144 0 145 33 31 c114 112 340 211 582 255 159 30 425 35 595 10
353 -50 601 -132 729 -242 l41 -35 0 -154 0 -154 29 0 c49 0 190 30 264 57
157 55 304 161 412 296 85 106 168 272 201 402 29 112 31 159 26 625 -4 324
12 526 98 1250 11 96 30 254 41 350 11 96 26 226 34 288 27 205 13 458 -31
597 -26 81 -104 224 -167 307 -124 165 -300 287 -510 356 l-82 27 -1285 1
c-707 1 -1296 -1 -1310 -3z m2510 -13 c129 -13 161 -27 176 -75 6 -22 12 -32
13 -22 1 10 13 22 27 27 26 10 46 4 102 -31 l22 -14 0 -1823 c0 -1610 -2
-1826 -15 -1852 -33 -64 74 -60 -1570 -60 -1644 0 -1537 -4 -1570 60 -13 26
-15 241 -15 1846 0 1718 1 1818 18 1831 30 24 91 53 110 53 11 0 26 -7 33 -17
13 -15 14 -13 19 12 4 25 12 31 55 42 28 7 86 17 130 22 102 11 2352 12 2465
1z"/>
<path d="M1862 4228 c-17 -17 -17 -1009 0 -1026 9 -9 177 -12 695 -12 l683 0
15 24 c14 21 16 82 13 508 -2 393 -6 488 -17 501 -12 16 -73 17 -695 17 -517
0 -685 -3 -694 -12z m1328 -513 l0 -455 -635 0 -635 0 0 455 0 455 635 0 635
0 0 -455z"/>
<path d="M2240 3980 c-16 -30 32 -50 123 -50 l74 0 10 35 11 35 -104 0 c-92 0
-104 -2 -114 -20z"/>
<path d="M2579 3984 c-11 -14 -9 -19 11 -35 20 -14 42 -19 102 -19 82 0 82 0
92 43 l6 27 -99 0 c-78 0 -101 -3 -112 -16z"/>
<path d="M2230 3835 c0 -58 4 -105 8 -105 5 0 16 8 25 18 13 14 17 38 17 95 0
65 -3 78 -19 87 -11 5 -22 10 -25 10 -3 0 -6 -47 -6 -105z"/>
<path d="M2570 3835 c0 -58 4 -105 9 -105 23 0 41 52 41 119 0 59 -3 72 -19
81 -11 5 -22 10 -25 10 -3 0 -6 -47 -6 -105z"/>
<path d="M2271 3736 c-9 -11 -10 -20 -1 -35 9 -18 20 -21 84 -21 80 0 103 13
91 50 -6 18 -15 20 -84 20 -56 0 -82 -4 -90 -14z"/>
<path d="M2601 3731 c-18 -32 16 -51 91 -51 52 0 68 4 83 20 31 35 5 50 -86
50 -66 0 -80 -3 -88 -19z"/>
<path d="M2237 3704 c-4 -4 -7 -54 -7 -110 l0 -104 25 12 c24 11 25 16 25 87
0 57 -5 82 -18 99 -10 13 -21 20 -25 16z"/>
<path d="M2445 3684 c-14 -22 -17 -44 -13 -123 4 -106 11 -129 34 -110 11 9
14 40 14 130 0 65 -4 120 -9 123 -5 3 -17 -6 -26 -20z"/>
<path d="M2784 3687 c-17 -20 -18 -36 -14 -129 5 -106 12 -130 30 -112 9 9 16
251 7 260 -2 3 -13 -6 -23 -19z"/>
<path d="M3031 3541 c-11 -7 -9 -11 8 -21 31 -16 75 -9 79 13 3 14 -4 17 -35
17 -21 0 -44 -4 -52 -9z"/>
<path d="M2870 3479 c0 -50 2 -59 13 -50 8 6 16 8 19 5 7 -7 78 79 78 95 0 23
-20 10 -52 -35 l-33 -47 -3 47 c-5 68 -22 56 -22 -15z"/>
<path d="M3020 3465 c0 -25 5 -45 10 -45 6 0 10 20 10 45 0 25 -4 45 -10 45
-5 0 -10 -20 -10 -45z"/>
<path d="M2255 3488 c-30 -16 -30 -16 -10 -38 15 -17 31 -20 100 -20 45 0 84
3 88 6 3 3 1 19 -5 35 -10 28 -11 29 -81 29 -40 0 -81 -6 -92 -12z"/>
<path d="M2584 3486 c-15 -12 -17 -18 -8 -33 9 -15 27 -18 104 -21 92 -3 93
-3 86 20 -3 13 -6 29 -6 36 0 18 -150 17 -176 -2z"/>
<path d="M2907 3423 c-30 -8 -13 -28 24 -28 24 0 34 5 34 15 0 16 -27 22 -58
13z"/>
<path d="M3084 3419 c-10 -17 13 -36 27 -22 12 12 4 33 -11 33 -5 0 -12 -5
-16 -11z"/>
<path d="M2870 3341 c0 -34 4 -61 10 -61 6 0 10 24 10 54 0 30 -4 58 -10 61
-6 4 -10 -17 -10 -54z"/>
<path d="M2964 3375 c-8 -31 3 -95 16 -95 6 0 10 27 10 60 0 61 -14 81 -26 35z"/>
<path d="M3020 3355 c0 -25 5 -45 10 -45 6 0 10 20 10 45 0 25 -4 45 -10 45
-5 0 -10 -20 -10 -45z"/>
<path d="M3114 3375 c-3 -14 -3 -40 0 -58 5 -25 4 -29 -6 -19 -17 17 -63 15
-78 -4 -12 -13 -7 -15 46 -12 l59 3 3 58 c3 59 -12 79 -24 32z"/>
<path d="M1643 3220 c-39 -24 -63 -67 -63 -116 0 -29 8 -44 39 -75 33 -33 45
-39 81 -39 54 0 103 29 124 74 21 44 20 61 -5 106 -38 68 -112 89 -176 50z"/>
<path d="M1539 2956 c-29 -17 -29 -16 -119 -255 -34 -89 -60 -172 -58 -184 2
-17 10 -22 33 -22 38 0 62 35 105 154 18 50 36 91 41 91 12 0 18 19 -59 -192
-38 -103 -67 -190 -64 -193 3 -3 32 -5 64 -5 l58 0 0 -78 c0 -44 -3 -119 -6
-169 l-7 -90 -106 19 c-58 10 -109 18 -112 18 -7 0 -32 -130 -27 -136 4 -4
2521 -424 2542 -424 9 0 17 20 25 61 6 34 8 65 6 69 -3 4 -30 11 -61 15 -32 4
-63 9 -71 12 -10 4 -13 79 -13 400 0 260 3 392 10 388 6 -4 10 -53 10 -115 0
-59 3 -115 6 -124 9 -22 51 -20 64 3 6 12 10 99 10 214 0 256 20 237 -241 237
-260 0 -240 22 -237 -255 3 -185 5 -209 21 -219 12 -8 22 -8 35 0 14 10 17 30
20 138 1 73 7 126 12 126 6 0 10 -138 10 -370 0 -310 -2 -370 -14 -370 -22 0
-1630 271 -1635 275 -5 6 -2 220 5 298 l7 67 63 0 c35 0 64 1 64 3 0 1 -22 89
-49 195 -27 106 -45 194 -41 197 4 2 19 -42 35 -99 39 -148 73 -194 113 -154
20 20 14 65 -34 232 -55 192 -66 221 -92 235 -11 6 -80 13 -153 16 -109 5
-139 3 -160 -9z m126 -874 c-4 -51 -9 -91 -12 -88 -8 7 -3 264 5 311 10 59 15
-103 7 -223z m1915 -227 c0 -117 -4 -185 -10 -185 -6 0 -10 66 -10 178 0 157
3 192 17 192 2 0 3 -83 3 -185z"/>
<path d="M3496 2899 c-33 -26 -56 -70 -56 -107 0 -67 83 -133 146 -118 44 11
104 78 104 115 0 72 -57 131 -125 131 -28 0 -51 -7 -69 -21z"/>
<path d="M2375 1460 l-176 -230 -482 0 c-466 0 -483 1 -517 20 -35 21 -35 21
-12 0 13 -11 40 -24 60 -29 48 -12 2585 -12 2633 0 19 5 46 21 60 36 l24 27
-33 -27 -34 -27 -491 0 -492 1 -175 229 c-96 127 -178 230 -181 230 -4 0 -86
-103 -184 -230z"/>
<path d="M590 4643 l-55 -58 58 55 c53 50 62 60 54 60 -1 0 -27 -26 -57 -57z"/>
<path d="M499 4543 c-13 -16 -12 -17 4 -4 9 7 17 15 17 17 0 8 -8 3 -21 -13z"/>
<path d="M403 4488 c-32 -51 -113 -221 -113 -237 0 -6 -4 -11 -9 -11 -18 0
-54 -184 -58 -300 -4 -94 2 -164 31 -380 79 -588 167 -1353 186 -1610 12 -174
12 -493 0 -645 -20 -260 45 -514 185 -725 57 -86 182 -221 199 -214 7 3 21 -6
32 -18 19 -23 19 -23 -1 -8 -18 14 -19 14 -7 -2 8 -9 19 -15 27 -12 7 3 16 0
21 -7 5 -8 3 -10 -7 -4 -8 5 -11 4 -6 -1 5 -5 16 -9 25 -9 9 0 16 -6 14 -13
-1 -8 2 -11 8 -7 14 9 52 -14 44 -27 -4 -6 -3 -8 3 -5 6 4 51 -12 101 -34 128
-56 264 -89 400 -96 l112 -6 0 30 0 30 -142 6 c-155 5 -254 28 -384 87 -293
133 -501 407 -559 739 -12 68 -14 149 -9 435 5 235 3 402 -5 506 -21 278 -100
968 -177 1540 -48 359 -52 448 -25 575 11 55 24 111 28 124 4 17 3 22 -6 17
-26 -16 30 141 89 252 43 80 45 95 3 30z m372 -4068 c27 -27 47 -50 44 -50 -3
0 -27 23 -54 50 -27 28 -47 50 -44 50 3 0 27 -22 54 -50z"/>
<path d="M400 4390 c-6 -11 -8 -20 -6 -20 3 0 10 9 16 20 6 11 8 20 6 20 -3 0
-10 -9 -16 -20z"/>
<path d="M366 4325 c-9 -26 -7 -32 5 -12 6 10 9 21 6 23 -2 3 -7 -2 -11 -11z"/>
<path d="M2016 653 c-3 -21 -13 -94 -21 -163 -8 -69 -17 -140 -20 -157 l-6
-33 88 0 c107 0 139 16 174 87 33 67 34 191 2 244 -29 47 -59 59 -143 59 l-68
0 -6 -37z m145 -80 c15 -38 6 -125 -14 -157 -13 -19 -26 -26 -48 -26 -28 0
-30 2 -25 28 3 15 8 54 11 87 9 86 13 95 41 95 17 0 28 -8 35 -27z"/>
<path d="M2325 568 c-4 -12 -35 -242 -35 -260 0 -14 60 -9 60 5 0 6 7 59 15
117 20 147 20 150 -10 150 -14 0 -28 -6 -30 -12z"/>
<path d="M2446 550 c-89 -106 -35 -304 67 -246 15 8 27 11 27 6 0 -6 6 -10 14
-10 15 0 20 17 31 103 l6 47 -44 0 c-32 0 -47 -5 -51 -16 -10 -27 -7 -44 10
-44 9 0 14 -6 12 -12 -3 -7 -13 -13 -24 -13 -15 0 -20 8 -22 46 -5 80 30 127
63 83 8 -11 19 -14 33 -10 52 17 1 96 -62 96 -26 0 -40 -7 -60 -30z"/>
<path d="M2645 558 c-2 -13 -9 -68 -15 -123 -6 -55 -14 -108 -16 -118 -5 -16
-1 -18 27 -15 l33 3 18 130 c9 72 17 133 17 138 1 4 -12 7 -29 7 -23 0 -31 -5
-35 -22z"/>
<path d="M2736 558 c-10 -38 -7 -48 15 -48 23 0 23 0 3 -162 l-7 -48 31 0 c34
0 32 -5 50 145 6 51 10 60 28 63 20 3 34 27 34 60 0 8 -21 12 -74 12 -68 0
-74 -2 -80 -22z"/>
<path d="M2945 568 c-3 -7 -24 -70 -48 -140 l-43 -128 28 0 c21 0 29 6 34 25
5 19 13 25 35 25 24 0 29 -4 29 -25 0 -22 4 -25 33 -25 l33 0 -16 138 -15 137
-33 3 c-20 2 -34 -2 -37 -10z m25 -118 c0 -19 -5 -30 -14 -30 -12 0 -12 5 -3
30 6 17 13 30 14 30 2 0 3 -13 3 -30z"/>
<path d="M3106 553 c-3 -16 -10 -71 -16 -123 -6 -52 -14 -103 -16 -112 -5 -16
3 -18 70 -18 l76 0 0 30 c0 28 -3 30 -36 30 l-37 0 7 68 c4 37 10 86 13 110 6
42 5 42 -25 42 -25 0 -31 -5 -36 -27z"/>
<path d="M2748 145 c-2 -2 -72 -6 -157 -9 -287 -9 -165 -16 284 -16 247 0 446
2 444 4 -6 7 -565 27 -571 21z"/>
</g>
</svg>
